<svg width="23" height="11" viewBox="0 0 23 11" fill="none" xmlns="http://www.w3.org/2000/svg">
<path d="M3.10803 10.8C3.02003 10.8 2.94803 10.772 2.89203 10.716C2.83603 10.66 2.80803 10.588 2.80803 10.5V9.67201C2.19203 9.59201 1.67603 9.43601 1.26003 9.20401C0.852028 8.97201 0.544028 8.69201 0.336028 8.36401C0.128028 8.02801 0.0160279 7.67601 2.78503e-05 7.30801C2.78503e-05 7.24401 0.0240279 7.18801 0.0720279 7.14001C0.128028 7.08401 0.192028 7.05601 0.264028 7.05601H1.77603C1.88803 7.05601 1.97203 7.07601 2.02803 7.11601C2.08403 7.15601 2.14003 7.20801 2.19603 7.27201C2.26003 7.39201 2.34803 7.50801 2.46003 7.62001C2.58003 7.73201 2.73203 7.82401 2.91603 7.89601C3.10803 7.96001 3.34403 7.99201 3.62403 7.99201C4.08803 7.99201 4.43603 7.92001 4.66803 7.77601C4.90803 7.63201 5.02803 7.43601 5.02803 7.18801C5.02803 7.01201 4.96403 6.86801 4.83603 6.75601C4.70803 6.63601 4.50003 6.53201 4.21203 6.44401C3.93203 6.34801 3.55603 6.25201 3.08403 6.15601C2.47603 6.02801 1.95603 5.86401 1.52403 5.66401C1.10003 5.45601 0.776028 5.18801 0.552028 4.86001C0.328028 4.52401 0.216028 4.10801 0.216028 3.61201C0.216028 2.97201 0.444028 2.42801 0.900028 1.98001C1.36403 1.53201 2.00003 1.25201 2.80803 1.14001V0.300006C2.80803 0.212006 2.83603 0.140006 2.89203 0.0840056C2.94803 0.0280058 3.02003 5.96046e-06 3.10803 5.96046e-06H4.10403C4.18403 5.96046e-06 4.25203 0.0280058 4.30803 0.0840056C4.37203 0.140006 4.40403 0.212006 4.40403 0.300006V1.16401C4.95603 1.26001 5.42003 1.43201 5.79603 1.68001C6.17203 1.92801 6.45603 2.20801 6.64803 2.52001C6.84803 2.83201 6.95203 3.13201 6.96003 3.42001C6.96003 3.48401 6.93603 3.54401 6.88803 3.60001C6.84003 3.64801 6.78003 3.67201 6.70803 3.67201H5.12403C5.03603 3.67201 4.96003 3.65601 4.89603 3.62401C4.83203 3.59201 4.77603 3.54001 4.72803 3.46801C4.68003 3.29201 4.55203 3.14001 4.34403 3.01201C4.13603 2.87601 3.86803 2.80801 3.54003 2.80801C3.19603 2.80801 2.92403 2.87201 2.72403 3.00001C2.52403 3.12001 2.42403 3.30801 2.42403 3.56401C2.42403 3.72401 2.47603 3.86401 2.58003 3.98401C2.69203 4.10401 2.87603 4.20801 3.13203 4.29601C3.38803 4.38401 3.73603 4.47601 4.17603 4.57201C4.90403 4.70801 5.49203 4.88001 5.94003 5.08801C6.38803 5.28801 6.71603 5.55201 6.92403 5.88001C7.13203 6.20001 7.23603 6.60401 7.23603 7.09201C7.23603 7.56401 7.11603 7.98001 6.87603 8.34001C6.64403 8.70001 6.31603 8.99201 5.89203 9.21601C5.46803 9.44001 4.97203 9.58801 4.40403 9.66001V10.5C4.40403 10.588 4.37203 10.66 4.30803 10.716C4.25203 10.772 4.18403 10.8 4.10403 10.8H3.10803ZM8.43565 9.60001C8.34765 9.60001 8.27165 9.57201 8.20765 9.51601C8.15165 9.46001 8.12365 9.38801 8.12365 9.30001V8.44801C8.12365 8.39201 8.13965 8.30801 8.17165 8.19601C8.20365 8.07601 8.28765 7.96401 8.42365 7.86001L9.67165 6.63601C10.3117 6.14801 10.8357 5.73601 11.2437 5.40001C11.6597 5.05601 11.9677 4.75201 12.1677 4.48801C12.3677 4.22401 12.4677 3.97601 12.4677 3.74401C12.4677 3.47201 12.3957 3.24801 12.2517 3.07201C12.1157 2.88801 11.8757 2.79601 11.5317 2.79601C11.2997 2.79601 11.1037 2.84801 10.9437 2.95201C10.7917 3.04801 10.6757 3.17601 10.5957 3.33601C10.5157 3.49601 10.4597 3.66001 10.4277 3.82801C10.3957 3.93201 10.3397 4.00401 10.2597 4.04401C10.1877 4.08401 10.1077 4.10401 10.0197 4.10401H8.51965C8.44765 4.10401 8.38765 4.08001 8.33965 4.03201C8.29165 3.98401 8.26765 3.92401 8.26765 3.85201C8.27565 3.46801 8.35565 3.10801 8.50765 2.77201C8.66765 2.43601 8.88765 2.14001 9.16765 1.88401C9.45565 1.62001 9.79565 1.41601 10.1877 1.27201C10.5877 1.12801 11.0357 1.05601 11.5317 1.05601C12.2117 1.05601 12.7877 1.16401 13.2597 1.38001C13.7397 1.59601 14.1037 1.90001 14.3517 2.29201C14.5997 2.67601 14.7237 3.12801 14.7237 3.64801C14.7237 4.04001 14.6357 4.40801 14.4597 4.75201C14.2917 5.08801 14.0477 5.41201 13.7277 5.72401C13.4157 6.02801 13.0437 6.34401 12.6117 6.67201L11.5077 7.78801H14.5917C14.6797 7.78801 14.7517 7.81601 14.8077 7.87201C14.8717 7.92801 14.9037 8.00001 14.9037 8.08801V9.30001C14.9037 9.38801 14.8717 9.46001 14.8077 9.51601C14.7517 9.57201 14.6797 9.60001 14.5917 9.60001H8.43565ZM17.5243 9.60001C17.4523 9.60001 17.3923 9.57601 17.3443 9.52801C17.2963 9.47201 17.2723 9.40801 17.2723 9.33601C17.2723 9.29601 17.2763 9.26401 17.2843 9.24001C17.3003 9.21601 17.3123 9.19601 17.3203 9.18001L19.0123 6.86401C18.9003 6.88801 18.7843 6.90001 18.6643 6.90001C18.3043 6.87601 17.9523 6.79601 17.6083 6.66001C17.2643 6.51601 16.9523 6.32401 16.6723 6.08401C16.4003 5.83601 16.1843 5.54401 16.0243 5.20801C15.8643 4.87201 15.7843 4.49601 15.7843 4.08001C15.7843 3.69601 15.8563 3.32801 16.0003 2.97601C16.1443 2.61601 16.3603 2.29601 16.6483 2.01601C16.9363 1.72801 17.2923 1.50001 17.7163 1.33201C18.1483 1.16401 18.6483 1.08001 19.2163 1.08001C19.7843 1.08001 20.2843 1.15601 20.7163 1.30801C21.1563 1.46001 21.5243 1.67201 21.8203 1.94401C22.1243 2.20801 22.3523 2.51601 22.5043 2.86801C22.6563 3.22001 22.7323 3.59601 22.7323 3.99601C22.7323 4.36401 22.6643 4.70401 22.5283 5.01601C22.4003 5.32801 22.2403 5.62401 22.0483 5.90401C21.8563 6.17601 21.6643 6.45201 21.4723 6.73201L19.5523 9.36001C19.5203 9.40001 19.4723 9.45201 19.4083 9.51601C19.3443 9.57201 19.2483 9.60001 19.1203 9.60001H17.5243ZM19.2403 5.32801C19.4803 5.32801 19.6963 5.27601 19.8883 5.17201C20.0803 5.06801 20.2323 4.92401 20.3443 4.74001C20.4563 4.55601 20.5123 4.33201 20.5123 4.06801C20.5123 3.80401 20.4563 3.58001 20.3443 3.39601C20.2323 3.20401 20.0803 3.06001 19.8883 2.96401C19.6963 2.86001 19.4803 2.80801 19.2403 2.80801C19.0083 2.80801 18.7963 2.86001 18.6043 2.96401C18.4123 3.06001 18.2603 3.20401 18.1483 3.39601C18.0363 3.58001 17.9803 3.80401 17.9803 4.06801C17.9803 4.33201 18.0363 4.55601 18.1483 4.74001C18.2603 4.92401 18.4123 5.06801 18.6043 5.17201C18.7963 5.27601 19.0083 5.32801 19.2403 5.32801Z" fill="white"/>
</svg>
